# xmcd
#
# Track frame offsets:
#	150
#	11457
#	20338
#	33608
#	51868
#	62786
#	76123
#	87848
#	98104
#	108005
#	119596
#	130509
#	141650
#	154637
#	165669
#	175742
#
# Disc length: 2480 seconds
#
# Revision: 8
# Processed by: cddbd v1.5.2PL0 Copyright (c) Steve Scherf et al.
# Submitted via: audiograbber 1.83.01
#
DISCID=c409ae10
DTITLE=John Lee Hooker - Premier Collection CD1
DYEAR=1997
DGENRE=Blues
TTITLE0=Boom, Boom
TTITLE1=Hobo Blues
TTITLE2=I Want To Hug You
TTITLE3=House Rent Boogie
TTITLE4=Want Ad Blues
TTITLE5=I'm So Excited
TTITLE6=Hard Headed Woman
TTITLE7=I Wanna Walk
TTITLE8=Onions
TTITLE9=What Do You Say
TTITLE10=Keep Your Hands To Yourself
TTITLE11=Send Me Your Pillow
TTITLE12=She Shot Me Down
TTITLE13=I Want To Shout
TTITLE14=I'm Leaving (Baby)
TTITLE15=Dusty Road
EXTD=Premier Collection\nJohn Lee Hooker\nmcps\nPS003-1
EXTT0=
EXTT1=
EXTT2=
EXTT3=
EXTT4=
EXTT5=
EXTT6=
EXTT7=
EXTT8=
EXTT9=
EXTT10=
EXTT11=
EXTT12=
EXTT13=
EXTT14=
EXTT15=
PLAYORDER=
